<svg width="256" height="256" viewBox="0 0 256 256" fill="none" xmlns="http://www.w3.org/2000/svg">
  <defs>
    <radialGradient id="paint0_radial" cx="0" cy="0" r="1" gradientUnits="userSpaceOnUse" gradientTransform="translate(128 108) rotate(90) scale(168)">
      <stop stop-color="#16314A"/>
      <stop offset="1" stop-color="#08111E"/>
    </radialGradient>
    <linearGradient id="paint1_linear" x1="34" y1="28" x2="220" y2="228" gradientUnits="userSpaceOnUse">
      <stop stop-color="#7EF8C9"/>
      <stop offset="0.52" stop-color="#5BD6FF"/>
      <stop offset="1" stop-color="#2AA7FF"/>
    </linearGradient>
    <linearGradient id="paint2_linear" x1="118" y1="95" x2="216" y2="176" gradientUnits="userSpaceOnUse">
      <stop stop-color="#7EF8C9"/>
      <stop offset="1" stop-color="#5BD6FF"/>
    </linearGradient>
  </defs>

  <rect width="256" height="256" rx="56" fill="url(#paint0_radial)"/>
  <rect x="10" y="10" width="236" height="236" rx="46" stroke="url(#paint1_linear)" stroke-width="8"/>
  <rect x="24" y="24" width="208" height="208" rx="34" stroke="white" stroke-opacity="0.08" stroke-width="2"/>

  <g stroke="#F8FAFC" stroke-width="12" stroke-linecap="round" stroke-linejoin="round">
    <circle cx="82" cy="74" r="18"/>
    <path d="M82 96V149"/>
    <path d="M82 112L58 137"/>
    <path d="M82 112L118 98"/>
    <path d="M82 149L60 186"/>
    <path d="M82 149L106 186"/>
  </g>

  <g stroke="url(#paint2_linear)" stroke-width="10" stroke-linecap="round" stroke-linejoin="round">
    <path d="M118 98C132 91 142 96 152 110"/>
    <path d="M156 120C162 108 173 102 183 102C193 102 205 108 210 120"/>
    <circle cx="182" cy="168" r="13"/>
    <path d="M182 168L182.01 168"/>
  </g>

  <g stroke="#F8FAFC" stroke-width="12" stroke-linecap="round" stroke-linejoin="round">
    <path d="M166 145V126"/>
    <path d="M198 145V126"/>
    <path d="M154 164C154 153 163 145 174 145H190C201 145 210 153 210 164V176C210 184 204 190 196 190H168C160 190 154 184 154 176V164Z"/>
  </g>
</svg>
